<svg width="23" height="25" viewBox="0 0 23 25" fill="none" xmlns="http://www.w3.org/2000/svg">
<path d="M19.825 15.7625C20.725 17.45 21.625 18.125 21.625 18.125H1.375C1.375 18.125 4.75 15.875 4.75 8C4.75 4.2875 7.7875 1.25 11.5 1.25C12.2875 1.25 12.9625 1.3625 13.6375 1.5875M9.58755 22.625C9.77586 22.9675 10.0527 23.2531 10.3891 23.4521C10.7255 23.651 11.1092 23.756 11.5001 23.756C11.8909 23.756 12.2746 23.651 12.611 23.4521C12.9474 23.2531 13.2242 22.9675 13.4126 22.625M21.625 8C21.625 9.86396 20.114 11.375 18.25 11.375C16.386 11.375 14.875 9.86396 14.875 8C14.875 6.13604 16.386 4.625 18.25 4.625C20.114 4.625 21.625 6.13604 21.625 8Z" stroke="#E72687" stroke-width="2" stroke-linecap="round" stroke-linejoin="round"/>
</svg>
