<svg width="27" height="28" viewBox="0 0 27 28" fill="none" xmlns="http://www.w3.org/2000/svg">
<g opacity="0.4">
<path d="M9 2.75V7.25M18 2.75V7.25M3.375 11.75H23.625M16.875 25.25V20.75C16.875 20.1533 17.1121 19.581 17.534 19.159C17.956 18.7371 18.5283 18.5 19.125 18.5H23.625M23.625 19.625V7.25C23.625 6.65326 23.3879 6.08097 22.966 5.65901C22.544 5.23705 21.9717 5 21.375 5H5.625C5.02826 5 4.45597 5.23705 4.03401 5.65901C3.61205 6.08097 3.375 6.65326 3.375 7.25V23C3.375 23.5967 3.61205 24.169 4.03401 24.591C4.45597 25.0129 5.02826 25.25 5.625 25.25H18L23.625 19.625Z" stroke="#E72687" stroke-width="2" stroke-linecap="round" stroke-linejoin="round"/>
</g>
</svg>
