<svg width="30" height="30" viewBox="0 0 30 30" fill="none" xmlns="http://www.w3.org/2000/svg">
<path d="M26.25 9.375V7.5C26.25 6.83696 25.9866 6.20107 25.5178 5.73223C25.0489 5.26339 24.413 5 23.75 5H6.25C5.58696 5 4.95107 5.26339 4.48223 5.73223C4.01339 6.20107 3.75 6.83696 3.75 7.5V25C3.75 25.663 4.01339 26.2989 4.48223 26.7678C4.95107 27.2366 5.58696 27.5 6.25 27.5H10.625M20 2.5V7.5M10 2.5V7.5M3.75 12.5H10M21.875 21.875L20 20.375V17.5M27.5 20C27.5 24.1421 24.1421 27.5 20 27.5C15.8579 27.5 12.5 24.1421 12.5 20C12.5 15.8579 15.8579 12.5 20 12.5C24.1421 12.5 27.5 15.8579 27.5 20Z" stroke="white" stroke-width="2" stroke-linecap="round" stroke-linejoin="round"/>
</svg>
