<svg width="23" height="25" viewBox="0 0 23 25" fill="none" xmlns="http://www.w3.org/2000/svg">
<path d="M7 1.25V5.75M16 1.25V5.75M1.375 10.25H21.625M14.875 23.75V19.25C14.875 18.6533 15.1121 18.081 15.534 17.659C15.956 17.2371 16.5283 17 17.125 17H21.625M21.625 18.125V5.75C21.625 5.15326 21.3879 4.58097 20.966 4.15901C20.544 3.73705 19.9717 3.5 19.375 3.5H3.625C3.02826 3.5 2.45597 3.73705 2.03401 4.15901C1.61205 4.58097 1.375 5.15326 1.375 5.75V21.5C1.375 22.0967 1.61205 22.669 2.03401 23.091C2.45597 23.5129 3.02826 23.75 3.625 23.75H16L21.625 18.125Z" stroke="#E72687" stroke-width="2" stroke-linecap="round" stroke-linejoin="round"/>
</svg>
