<svg width="30" height="30" viewBox="0 0 30 30" fill="none" xmlns="http://www.w3.org/2000/svg">
<g opacity="0.4">
<path d="M17.5 2.5V7.5C17.5 8.16304 17.7634 8.79893 18.2322 9.26777C18.7011 9.73661 19.337 10 20 10H25M25 21.25L23.38 19.63C22.8151 19.0652 22.0489 18.7479 21.25 18.7479C20.4511 18.7479 19.6849 19.0652 19.12 19.63L11.25 27.5M18.75 2.5H7.5C6.83696 2.5 6.20107 2.76339 5.73223 3.23223C5.26339 3.70107 5 4.33696 5 5V25C5 25.663 5.26339 26.2989 5.73223 26.7678C6.20107 27.2366 6.83696 27.5 7.5 27.5H22.5C23.163 27.5 23.7989 27.2366 24.2678 26.7678C24.7366 26.2989 25 25.663 25 25V8.75L18.75 2.5ZM15 15C15 16.3807 13.8807 17.5 12.5 17.5C11.1193 17.5 10 16.3807 10 15C10 13.6193 11.1193 12.5 12.5 12.5C13.8807 12.5 15 13.6193 15 15Z" stroke="#E72687" stroke-width="2" stroke-linecap="round" stroke-linejoin="round"/>
</g>
</svg>
