<svg width="30" height="30" viewBox="0 0 30 30" fill="none" xmlns="http://www.w3.org/2000/svg">
<g opacity="0.4">
<path d="M7.49982 21.2498H22.4998M21.2497 26.2497C21.5812 26.2497 21.8992 26.118 22.1336 25.8836C22.368 25.6492 22.4997 25.3312 22.4997 24.9997V18.3122C22.4997 17.7409 22.8947 17.2572 23.4084 17.011C24.4722 16.5035 25.3224 15.6366 25.8092 14.5633C26.296 13.49 26.388 12.2792 26.069 11.1446C25.7499 10.0101 25.0404 9.02471 24.0655 8.36238C23.0907 7.70006 21.9132 7.40338 20.7409 7.5247C20.2581 6.40246 19.457 5.44632 18.4367 4.7745C17.4163 4.10267 16.2214 3.74463 14.9997 3.74463C13.778 3.74463 12.5831 4.10267 11.5627 4.7745C10.5423 5.44632 9.74124 6.40246 9.25844 7.5247C8.08667 7.40423 6.90999 7.70133 5.93586 8.36362C4.96173 9.02591 4.2527 10.0109 3.9338 11.1448C3.61489 12.2788 3.70658 13.4889 4.1927 14.5619C4.67881 15.6349 5.52814 16.5017 6.59094 17.0097C7.10469 17.2572 7.49969 17.741 7.49969 18.311V24.9997C7.49969 25.3312 7.63139 25.6492 7.86581 25.8836C8.10023 26.118 8.41817 26.2497 8.74969 26.2497H21.2497Z" stroke="#E72687" stroke-width="2" stroke-linecap="round" stroke-linejoin="round"/>
</g>
</svg>
