<svg width="110" height="54" viewBox="0 0 110 54" fill="none" xmlns="http://www.w3.org/2000/svg">
<g clip-path="url(#clip0_675_4686)">
<path d="M20.7719 12.641L18.6508 21.1507C19.0305 13.846 14.8703 11.7115 11.129 11.699H0V21.0725C0 33.8949 7.61352 36.6709 14.029 36.6709C15.0928 36.6709 16.6182 36.5614 17.7802 36.3423V38.3766C17.7802 40.943 15.6035 43.0242 12.9194 43.0242H5.40082V53.9563H17.5936C24.9027 53.9563 30.8305 48.2884 30.8305 41.2998V12.641H20.7686H20.7719Z" fill="#E72687"/>
<path d="M95.2311 27.4695C95.2311 40.2919 87.6176 43.068 81.2021 43.068C79.8437 43.068 78.5901 42.8896 77.451 42.5359V53.9969H64.4006V12.6409H74.4625L76.5836 21.1475C76.2039 13.8208 80.3903 11.6926 84.1415 11.6926C89.6339 11.6926 95.2344 16.4185 95.2344 27.4664" fill="#E72687"/>
<path d="M32.8794 12.6409V29.0625C32.8794 33.3157 32.5554 43.1242 42.3423 43.1242C48.5385 43.1242 50.2242 38.6331 50.2242 34.6772C50.2242 34.3798 50.2242 34.0825 50.1686 33.7946L52.0736 42.1822H62.3548V12.6409H32.8827H32.8794Z" fill="#E72687"/>
<path d="M101.657 0C97.5814 0 88.6619 1.1799 96.3343 18.5467L101.113 29.1845H102.206L106.985 18.5467C114.658 1.1799 105.738 0 101.657 0ZM101.657 32.0232C97.637 32.0232 95.5716 33.9104 95.5716 37.5722C95.5716 41.2339 97.637 43.1274 101.657 43.1274C105.676 43.1274 107.748 41.2402 107.748 37.5722C107.748 33.9041 105.683 32.0232 101.657 32.0232Z" fill="#E72687"/>
<path d="M55.7267 11.4578C53.3209 10.7943 51.7628 9.28888 51.2031 6.96977C50.7056 4.91981 49.9855 0.807373 49.9855 0.807373C49.9855 0.807373 49.2654 4.91981 48.7678 6.96977C48.2081 9.28888 46.6468 10.7974 44.2442 11.4578C43.498 11.6643 37.616 12.6408 37.616 12.6408C37.616 12.6408 43.4947 13.6173 44.2442 13.8238C46.6501 14.4873 48.2081 15.9959 48.7678 18.3118C49.2654 20.3649 49.9855 24.4742 49.9855 24.4742C49.9855 24.4742 50.7056 20.3618 51.2031 18.3118C51.7628 15.9927 53.3242 14.4842 55.7267 13.8238C56.473 13.6173 62.355 12.6408 62.355 12.6408C62.355 12.6408 56.4763 11.6643 55.7267 11.4578Z" fill="#FAB316"/>
<path d="M21.0011 29.0687C19.6525 28.6962 18.7786 27.8512 18.4643 26.5524C18.1861 25.4006 17.7835 23.0972 17.7835 23.0972C17.7835 23.0972 17.3776 25.4006 17.1027 26.5524C16.7885 27.8512 15.9145 28.6993 14.5659 29.0687C14.147 29.1845 10.8508 29.7322 10.8508 29.7322C10.8508 29.7322 14.147 30.2799 14.5659 30.3956C15.9145 30.7681 16.7885 31.6131 17.1027 32.9119C17.3809 34.0637 17.7835 36.3671 17.7835 36.3671C17.7835 36.3671 18.1861 34.0605 18.4643 32.9119C18.7786 31.6131 19.6525 30.765 21.0011 30.3956C21.4201 30.2799 24.7162 29.7322 24.7162 29.7322C24.7162 29.7322 21.4201 29.1845 21.0011 29.0687Z" fill="#FAB316"/>
<path d="M82.253 31.6571C80.2399 31.1032 78.9372 29.8419 78.4691 27.9015C78.0534 26.1864 77.4512 22.7468 77.4512 22.7468C77.4512 22.7468 76.8489 26.1864 76.4332 27.9015C75.9651 29.8419 74.6591 31.1032 72.6493 31.6571C72.0242 31.8292 67.1045 32.6461 67.1045 32.6461C67.1045 32.6461 72.0242 33.463 72.6493 33.6351C74.6591 34.189 75.9651 35.4503 76.4332 37.3907C76.8489 39.1058 77.4512 42.5454 77.4512 42.5454C77.4512 42.5454 78.0534 39.1058 78.4691 37.3907C78.9372 35.4503 80.2432 34.189 82.253 33.6351C82.8782 33.463 87.7978 32.6461 87.7978 32.6461C87.7978 32.6461 82.8782 31.8292 82.253 31.6571Z" fill="#FAB316"/>
</g>
<defs>
<clipPath id="clip0_675_4686">
<rect width="110" height="54" fill="white"/>
</clipPath>
</defs>
</svg>
