<svg width="135" height="35" viewBox="0 0 135 35" fill="none" xmlns="http://www.w3.org/2000/svg">
<path d="M41.2185 33.4269H46.5172V20.4917C46.5172 16.2748 48.6598 14.0453 52.7167 14.0453H54.2501V8.59839H54.0055C49.7299 8.59839 46.6207 9.56735 44.504 11.5594C42.3921 13.5467 41.3173 16.5053 41.2209 20.607L41.2185 33.4269Z" fill="white"/>
<path d="M69.8171 8.20337C66.0494 8.22689 63.199 9.28993 61.3457 11.3596C59.4689 13.4574 58.5188 16.6794 58.5188 20.9386C58.5188 29.3865 62.2935 33.7868 69.7371 34.022C75.2522 34.0196 78.693 31.6537 80.2428 26.7901H76.3106C75.6003 26.7901 75.0382 27.0252 74.5914 27.5074L74.5749 27.5238C73.1309 28.9138 71.5316 29.6146 69.8147 29.6146C66.1741 29.6146 64.1891 27.3592 63.9139 22.9142L63.8693 22.1734H80.8943C81.0448 17.0816 80.0218 13.3445 77.8534 11.0679C76.0401 9.16763 73.3355 8.20337 69.8171 8.20337ZM75.3557 18.8596H63.9069L64.0198 18.0647C64.5748 14.1818 66.4916 12.2109 69.716 12.2109C72.9074 12.2109 74.8265 14.2406 75.2663 18.0835L75.3557 18.8596Z" fill="white"/>
<path d="M96.4354 8.20337C92.6677 8.22689 89.8173 9.28993 87.964 11.3596C86.0872 13.4574 85.1371 16.6794 85.1371 20.9386C85.1371 29.3865 88.9118 33.7868 96.3554 34.022C101.871 34.0196 105.311 31.6537 106.861 26.7901H102.929C102.219 26.7901 101.656 27.0252 101.21 27.5074L101.193 27.5238C99.7491 28.9138 98.1499 29.6146 96.433 29.6146C92.7924 29.6146 90.8074 27.3592 90.5322 22.9142L90.4875 22.1734H107.513C107.663 17.0816 106.64 13.3445 104.472 11.0679C102.656 9.16763 99.9537 8.20337 96.4354 8.20337ZM101.974 18.8596H90.5252L90.6381 18.0647C91.1931 14.1818 93.1099 12.2109 96.3342 12.2109C99.5257 12.2109 101.445 14.2406 101.885 18.0835L101.974 18.8596Z" fill="white"/>
<path d="M121.424 8.20322C118.174 8.32082 115.716 9.44266 114.119 11.5405C112.482 13.6901 111.652 16.9521 111.652 21.2372C111.652 25.3976 112.616 28.5538 114.516 30.6234C116.403 32.6766 119.312 33.7537 123.162 33.8243H123.303C127.191 33.8243 130.114 32.8765 131.995 31.0068C133.82 29.1911 134.747 26.4207 134.747 22.7729V3.73941C134.747 2.31654 133.569 1.11475 132.172 1.11475H129.596V14.0241L128.305 11.938C126.777 9.46146 124.46 8.20558 121.424 8.20322ZM123.249 29.6168C121.523 29.6168 120.13 29.0947 119.11 28.0646C117.691 26.6347 117.019 24.3016 117.049 20.9338V20.915C117.266 15.3928 119.326 12.7094 123.348 12.7094C127.334 12.7094 129.437 15.4728 129.596 20.9197C129.596 23.7443 129.07 25.9103 128.032 27.3591C126.96 28.8572 125.351 29.6168 123.249 29.6168Z" fill="white"/>
<path d="M36.4231 32.8319C34.083 29.5393 30.8563 26.8864 27.1098 25.2542C24.8261 24.2594 22.3426 23.6361 19.7367 23.4597C19.2334 23.4268 18.7231 23.408 18.2104 23.408C17.7588 23.408 17.3096 23.4221 16.8628 23.448C14.1911 23.6079 11.6464 24.2358 9.31098 25.2542L18.2104 6.03015L25.6681 22.1427C28.7608 23.2386 31.5383 24.9978 33.8314 27.2509L22.4437 2.65054C22.3238 2.4036 22.1827 2.17076 22.0251 1.94969C21.6629 1.44874 21.2066 1.02306 20.6798 0.6985C19.9625 0.256352 19.1159 0 18.2104 0C17.3049 0 16.4583 0.256352 15.7409 0.6985C15.2329 1.0113 14.7908 1.41817 14.4357 1.89559C14.2593 2.13078 14.1064 2.38478 13.9747 2.65054L0 32.8366C0.312796 33.02 3.68065 34.9415 5.80908 33.4716C5.97606 33.3563 6.14774 33.2105 6.31237 33.0294C6.4817 32.8436 6.65574 32.6602 6.84154 32.4885C7.92339 31.4983 8.9488 30.8351 9.72491 30.3977C11.6205 29.337 13.7372 28.695 16.1478 28.4127C16.8228 28.3328 17.5119 28.2928 18.208 28.2928C18.9865 28.2928 19.7532 28.3445 20.5034 28.4433C24.2594 28.9372 27.3873 30.3436 29.9932 32.8342C30.2566 33.0859 31.3455 34.0642 33.0435 34.1254C34.9509 34.1889 36.195 33.0459 36.4231 32.8319Z" fill="url(#paint0_linear_246_65)"/>
<defs>
<linearGradient id="paint0_linear_246_65" x1="0.00079963" y1="17.0603" x2="36.4229" y2="17.0603" gradientUnits="userSpaceOnUse">
<stop stop-color="#BE9042"/>
<stop offset="0.5129" stop-color="#F1DC81"/>
<stop offset="1" stop-color="#BE9140"/>
</linearGradient>
</defs>
</svg>
