<svg width="110" height="54" viewBox="0 0 110 54" fill="none" xmlns="http://www.w3.org/2000/svg">
<g clip-path="url(#clip0_1158_2326)">
<path d="M20.7719 12.6408L18.6508 21.1505C19.0305 13.8457 14.8703 11.7112 11.129 11.6987H0V21.0722C0 33.8946 7.61352 36.6707 14.029 36.6707C15.0928 36.6707 16.6182 36.5611 17.7802 36.3421V38.3764C17.7802 40.9427 15.6035 43.024 12.9194 43.024H5.40082V53.9561H17.5936C24.9027 53.9561 30.8305 48.2882 30.8305 41.2995V12.6408H20.7686H20.7719Z" fill="#E72687"/>
<path d="M95.2309 27.4692C95.2309 40.2917 87.6174 43.0677 81.2019 43.0677C79.8435 43.0677 78.5898 42.8893 77.4507 42.5357V53.9967H64.4004V12.6407H74.4623L76.5833 21.1472C76.2036 13.8206 80.3901 11.6924 84.1412 11.6924C89.6337 11.6924 95.2342 16.4182 95.2342 27.4661" fill="#E72687"/>
<path d="M32.8792 12.6411V29.0627C32.8792 33.316 32.5551 43.1245 42.3421 43.1245C48.5383 43.1245 50.224 38.6333 50.224 34.6774C50.224 34.3801 50.224 34.0828 50.1684 33.7948L52.0734 42.1824H62.3546V12.6411H32.8825H32.8792Z" fill="#E72687"/>
<path d="M101.657 0C97.5816 0 88.6621 1.1799 96.3345 18.5467L101.113 29.1845H102.207L106.986 18.5467C114.658 1.1799 105.739 0 101.657 0ZM101.657 32.0232C97.6373 32.0232 95.5719 33.9104 95.5719 37.5722C95.5719 41.2339 97.6373 43.1274 101.657 43.1274C105.676 43.1274 107.748 41.2402 107.748 37.5722C107.748 33.9041 105.683 32.0232 101.657 32.0232Z" fill="#E72687"/>
<path d="M55.727 11.458C53.3211 10.7945 51.7631 9.28913 51.2034 6.97001C50.7058 4.92005 49.9857 0.807617 49.9857 0.807617C49.9857 0.807617 49.2656 4.92005 48.7681 6.97001C48.2084 9.28913 46.647 10.7976 44.2445 11.458C43.4982 11.6646 37.6162 12.641 37.6162 12.641C37.6162 12.641 43.4949 13.6175 44.2445 13.8241C46.6503 14.4876 48.2084 15.9961 48.7681 18.3121C49.2656 20.3652 49.9857 24.4745 49.9857 24.4745C49.9857 24.4745 50.7058 20.362 51.2034 18.3121C51.7631 15.993 53.3244 14.4844 55.727 13.8241C56.4733 13.6175 62.3552 12.641 62.3552 12.641C62.3552 12.641 56.4765 11.6646 55.727 11.458Z" fill="#FAB316"/>
<path d="M21.0009 29.0687C19.6523 28.6962 18.7783 27.8512 18.4641 26.5524C18.1859 25.4006 17.7833 23.0972 17.7833 23.0972C17.7833 23.0972 17.3774 25.4006 17.1024 26.5524C16.7882 27.8512 15.9143 28.6993 14.5657 29.0687C14.1467 29.1845 10.8506 29.7322 10.8506 29.7322C10.8506 29.7322 14.1467 30.2799 14.5657 30.3956C15.9143 30.7681 16.7882 31.6131 17.1024 32.9119C17.3807 34.0637 17.7833 36.3671 17.7833 36.3671C17.7833 36.3671 18.1859 34.0605 18.4641 32.9119C18.7783 31.6131 19.6523 30.765 21.0009 30.3956C21.4198 30.2799 24.716 29.7322 24.716 29.7322C24.716 29.7322 21.4198 29.1845 21.0009 29.0687Z" fill="#FAB316"/>
<path d="M82.253 31.6569C80.2399 31.1029 78.9372 29.8416 78.4691 27.9012C78.0534 26.1861 77.4512 22.7466 77.4512 22.7466C77.4512 22.7466 76.8489 26.1861 76.4332 27.9012C75.9651 29.8416 74.6591 31.1029 72.6493 31.6569C72.0242 31.829 67.1045 32.6459 67.1045 32.6459C67.1045 32.6459 72.0242 33.4627 72.6493 33.6348C74.6591 34.1888 75.9651 35.4501 76.4332 37.3905C76.8489 39.1056 77.4512 42.5451 77.4512 42.5451C77.4512 42.5451 78.0534 39.1056 78.4691 37.3905C78.9372 35.4501 80.2432 34.1888 82.253 33.6348C82.8782 33.4627 87.7978 32.6459 87.7978 32.6459C87.7978 32.6459 82.8782 31.829 82.253 31.6569Z" fill="#FAB316"/>
</g>
<defs>
<clipPath id="clip0_1158_2326">
<rect width="110" height="54" fill="white"/>
</clipPath>
</defs>
</svg>
