<svg width="25" height="28" viewBox="0 0 25 28" fill="none" xmlns="http://www.w3.org/2000/svg">
<g opacity="0.4">
<path d="M12.547 1.5H11.997C11.3339 1.5 10.698 1.76339 10.2292 2.23223C9.76037 2.70107 9.49697 3.33696 9.49697 4V4.225C9.49653 4.66341 9.3808 5.09399 9.1614 5.47355C8.942 5.85311 8.62665 6.1683 8.24697 6.3875L7.70948 6.7C7.32943 6.91942 6.89832 7.03494 6.45947 7.03494C6.02063 7.03494 5.58952 6.91942 5.20947 6.7L5.02197 6.6C4.44831 6.26908 3.76677 6.1793 3.12698 6.35039C2.48718 6.52147 1.94141 6.93942 1.60948 7.5125L1.33448 7.9875C1.00355 8.56117 0.91378 9.2427 1.08486 9.8825C1.25594 10.5223 1.67389 11.0681 2.24698 11.4L2.43448 11.525C2.81232 11.7431 3.1265 12.0564 3.34579 12.4335C3.56508 12.8107 3.68184 13.2387 3.68448 13.675V14.3125C3.68622 14.753 3.57154 15.1862 3.35203 15.5681C3.13252 15.9501 2.81599 16.2672 2.43448 16.4875L2.24698 16.6C1.67389 16.9319 1.25594 17.4777 1.08486 18.1175C0.91378 18.7573 1.00355 19.4388 1.33448 20.0125L1.60948 20.4875C1.94141 21.0606 2.48718 21.4785 3.12698 21.6496C3.76677 21.8207 4.44831 21.7309 5.02197 21.4L5.20947 21.3C5.58952 21.0806 6.02063 20.9651 6.45947 20.9651C6.89832 20.9651 7.32943 21.0806 7.70948 21.3L8.24697 21.6125C8.62665 21.8317 8.942 22.1469 9.1614 22.5265C9.3808 22.906 9.49653 23.3366 9.49697 23.775V24C9.49697 24.663 9.76037 25.2989 10.2292 25.7678C10.698 26.2366 11.3339 26.5 11.997 26.5H12.547C13.21 26.5 13.8459 26.2366 14.3147 25.7678C14.7836 25.2989 15.047 24.663 15.047 24V23.775C15.0474 23.3366 15.1632 22.906 15.3826 22.5265C15.602 22.1469 15.9173 21.8317 16.297 21.6125L16.8345 21.3C17.2145 21.0806 17.6456 20.9651 18.0845 20.9651C18.5233 20.9651 18.9544 21.0806 19.3345 21.3L19.522 21.4C20.0956 21.7309 20.7772 21.8207 21.417 21.6496C22.0568 21.4785 22.6025 21.0606 22.9345 20.4875L23.2095 20C23.5404 19.4263 23.6302 18.7448 23.4591 18.105C23.288 17.4652 22.8701 16.9194 22.297 16.5875L22.1095 16.4875C21.728 16.2672 21.4114 15.9501 21.1919 15.5681C20.9724 15.1862 20.8577 14.753 20.8595 14.3125V13.6875C20.8577 13.247 20.9724 12.8138 21.1919 12.4319C21.4114 12.0499 21.728 11.7328 22.1095 11.5125L22.297 11.4C22.8701 11.0681 23.288 10.5223 23.4591 9.8825C23.6302 9.2427 23.5404 8.56117 23.2095 7.9875L22.9345 7.5125C22.6025 6.93942 22.0568 6.52147 21.417 6.35039C20.7772 6.1793 20.0956 6.26908 19.522 6.6L19.3345 6.7C18.9544 6.91942 18.5233 7.03494 18.0845 7.03494C17.6456 7.03494 17.2145 6.91942 16.8345 6.7L16.297 6.3875C15.9173 6.1683 15.602 5.85311 15.3826 5.47355C15.1632 5.09399 15.0474 4.66341 15.047 4.225V4C15.047 3.33696 14.7836 2.70107 14.3147 2.23223C13.8459 1.76339 13.21 1.5 12.547 1.5Z" stroke="#E72687" stroke-width="2" stroke-linecap="round" stroke-linejoin="round"/>
<path d="M12.272 17.75C14.343 17.75 16.022 16.0711 16.022 14C16.022 11.9289 14.343 10.25 12.272 10.25C10.2009 10.25 8.52197 11.9289 8.52197 14C8.52197 16.0711 10.2009 17.75 12.272 17.75Z" stroke="#E72687" stroke-width="2" stroke-linecap="round" stroke-linejoin="round"/>
</g>
</svg>
