<svg width="20" height="25" viewBox="0 0 20 25" fill="none" xmlns="http://www.w3.org/2000/svg">
<path d="M7.75 23.4999V16.1087M10 11.125H10.0113M10 6.625H10.0113M12.25 16.1087V23.4999M13.375 16.75C12.4013 16.0198 11.2171 15.625 10 15.625C8.78292 15.625 7.59867 16.0198 6.625 16.75M14.5 11.125H14.5113M14.5 6.625H14.5113M5.5 11.125H5.51125M5.5 6.625H5.51125M3.25 1H16.75C17.9926 1 19 2.00736 19 3.25V21.25C19 22.4926 17.9926 23.5 16.75 23.5H3.25C2.00736 23.5 1 22.4926 1 21.25V3.25C1 2.00736 2.00736 1 3.25 1Z" stroke="#E72687" stroke-width="2" stroke-linecap="round" stroke-linejoin="round"/>
</svg>
