<svg width="35" height="35" viewBox="0 0 35 35" fill="none" xmlns="http://www.w3.org/2000/svg">
<path d="M18.5 10.3332V16.9998M18.5 23.6665H18.5167M11.6667 30.3332C14.8476 31.965 18.5068 32.407 21.9848 31.5795C25.4628 30.7521 28.5309 28.7096 30.6363 25.8202C32.7416 22.9308 33.7457 19.3844 33.4676 15.8202C33.1896 12.2559 31.6476 8.9082 29.1197 6.38024C26.5917 3.85227 23.244 2.31033 19.6797 2.03228C16.1155 1.75422 12.5691 2.75833 9.67971 4.86366C6.79029 6.96899 4.74783 10.0371 3.92038 13.5151C3.09293 16.9931 3.53491 20.6523 5.16668 23.8332L1.83334 33.6666L11.6667 30.3332Z" stroke="#E72687" stroke-width="2" stroke-linecap="round" stroke-linejoin="round"/>
</svg>
